<svg width="46" height="46" viewBox="0 0 46 46" fill="none" xmlns="http://www.w3.org/2000/svg">
<path d="M22.8762 11.0946C25.4555 11.09 26.0693 11.4797 26.0764 11.4843L26.0891 38.7118C26.1163 38.7091 28.774 38.4445 31.1418 36.9013C33.5116 35.3568 35.0989 33.6107 35.1125 33.5956L40.4661 37.3016C36.2654 42.3342 29.9316 45.539 22.845 45.539C21.7761 45.5389 20.7245 45.4642 19.6946 45.3231L19.7151 11.4227C19.9594 11.3324 20.7883 11.0984 22.8762 11.0946Z" fill="#89D815"/>
<path d="M22.9004 0C35.5481 0 45.8017 10.2065 45.8018 22.7969C45.8018 26.5546 44.8872 30.0996 43.2695 33.2246L37.6064 29.8271C38.6507 27.6785 39.2363 25.2676 39.2363 22.7207C39.2361 13.6977 31.8883 6.38281 22.8242 6.38281C13.7602 6.38293 6.41231 13.6978 6.41211 22.7207C6.41211 28.8459 9.79919 34.1825 14.8096 36.9795V44.1279C6.15525 40.8732 0 32.5515 0 22.7969C0.000105619 10.2066 10.2529 0.000201133 22.9004 0Z" fill="#2876D3"/>
</svg>
